# xmcd
#
# Track frame offsets:
#	150
#	18504
#	32612
#	51248
#	71044
#	91845
#	107809
#	123869
#	135825
#	153296
#	167714
#	184445
#	198846
#	219503
#
# Disc length: 3103 seconds
#
# Revision: 0
# Processed by: cddbd v1.5.2PL0 Copyright (c) Steve Scherf et al.
# Submitted via: EasyCDDAExtractor 10.0.3.1
#
DISCID=b90c1d0e
DTITLE=Yan David - Au loin là-bas
DYEAR=2007
DGENRE=Country
TTITLE0=Au loin là-bas
TTITLE1=Tout s'arrange avec le temps avec Patrick Norman
TTITLE2=Dis-moi pépère avec Tex Lecor
TTITLE3=Jusqu'au bout
TTITLE4=Je ne fartirai pas
TTITLE5=Moé pis mon chum
TTITLE6=Touche moé pas
TTITLE7=Heureux aujourd'hui
TTITLE8=Il m'arrive de penser à toi
TTITLE9=Avec toi je réalise
TTITLE10=L'automne de ma vie
TTITLE11=Trois bonnes raisons
TTITLE12=C'est plus fort que moi
TTITLE13=Wéyon don'
EXTD=
EXTT0=
EXTT1=
EXTT2=
EXTT3=
EXTT4=
EXTT5=
EXTT6=
EXTT7=
EXTT8=
EXTT9=
EXTT10=
EXTT11=
EXTT12=
EXTT13=
PLAYORDER=
